<?xml version="1.0" encoding="iso-8859-1"?>
<!-- Generator: Adobe Illustrator 18.0.0, SVG Export Plug-In . SVG Version: 6.00 Build 0)  -->
<!DOCTYPE svg PUBLIC "-//W3C//DTD SVG 1.1//EN" "http://www.w3.org/Graphics/SVG/1.1/DTD/svg11.dtd">
<svg version="1.1" id="Capa_1" xmlns="http://www.w3.org/2000/svg" xmlns:xlink="http://www.w3.org/1999/xlink" x="0px" y="0px"
	 viewBox="0 0 459.208 459.208" style="enable-background:new 0 0 459.208 459.208;" xml:space="preserve">
<path d="M439.424,219.622l-68.49-48.26c-38.847-27.374-84.049-42.689-131.298-44.589v-24.098c0-6.989,5.686-12.675,12.675-12.675
	c23.852,0,43.256-19.404,43.256-43.255v-3.489C295.566,19.404,276.162,0,252.31,0s-43.256,19.404-43.256,43.256V50
	c0,5.523,4.477,10,10,10s10-4.477,10-10v-6.744C229.054,30.433,239.487,20,252.31,20s23.256,10.433,23.256,23.256v3.489
	C275.566,59.568,265.134,70,252.31,70c-18.017,0-32.675,14.658-32.675,32.675v24.094c-47.271,1.89-92.496,17.207-131.361,44.593
	l-68.493,48.262c-10.587,7.465-14.898,20.269-10.983,32.618c3.916,12.347,14.814,20.325,27.766,20.325h59.757v176.642
	c0,5.523,4.477,10,10,10h197.15c5.522,0,10-4.477,10-10v-81.194h55.097c5.522,0,10-4.477,10-10v-85.447h44.076
	c12.951,0,23.85-7.978,27.765-20.324C454.325,239.893,450.014,227.089,439.424,219.622z M293.472,263.81v175.398h-177.15V263.81
	c0-12.539,10.201-22.74,22.739-22.74h160.976C295.879,247.661,293.472,255.458,293.472,263.81z M358.568,348.014h-45.097v-75.447
	h45.097V348.014z M316.458,252.566c3.89-6.808,11.191-11.426,19.562-11.495c8.371,0.069,15.672,4.688,19.563,11.495H316.458z
	 M431.345,246.197c-0.474,1.494-2.502,6.37-8.7,6.37h-45.588c-4.887-17.899-21.134-31.159-40.485-31.49
	c-0.12-0.004-0.24-0.006-0.36-0.006c-0.127,0-0.256,0-0.383,0H139.06c-19.675,0-36.278,13.368-41.228,31.496H36.564
	c-6.199,0-8.227-4.876-8.701-6.37c-0.474-1.495-1.627-6.652,3.441-10.226l68.49-48.26c38.2-26.917,83.087-41.144,129.81-41.144
	c46.723,0,91.611,14.228,129.81,41.144l68.487,48.259C432.972,239.544,431.819,244.701,431.345,246.197z"/>
<g>
</g>
<g>
</g>
<g>
</g>
<g>
</g>
<g>
</g>
<g>
</g>
<g>
</g>
<g>
</g>
<g>
</g>
<g>
</g>
<g>
</g>
<g>
</g>
<g>
</g>
<g>
</g>
<g>
</g>
</svg>
